<svg xmlns="http://www.w3.org/2000/svg" viewBox="0 0 50 50" width="50px" height="50px">
  <path d="M 11.839844 2.988281 C 11.070313 2.925781 10.214844 3.148438 9.425781 3.703125 C 8.730469 4.1875 7.230469 5.378906 5.828125 6.726563 C 5.128906 7.398438 4.460938 8.097656 3.945313 8.785156 C 3.425781 9.472656 2.972656 10.101563 3 11.015625 C 3.027344 11.835938 3.109375 14.261719 4.855469 17.980469 C 6.601563 21.695313 9.988281 26.792969 16.59375 33.402344 C 23.203125 40.011719 28.300781 43.398438 32.015625 45.144531 C 35.730469 46.890625 38.160156 46.972656 38.980469 47 C 39.890625 47.027344 40.519531 46.574219 41.207031 46.054688 C 41.894531 45.535156 42.59375 44.871094 43.265625 44.171875 C 44.609375 42.769531 45.800781 41.269531 46.285156 40.574219 C 47.390625 39 47.207031 37.140625 45.976563 36.277344 C 45.203125 35.734375 38.089844 31 37.019531 30.34375 C 35.933594 29.679688 34.683594 29.980469 33.566406 30.570313 C 32.6875 31.035156 30.308594 32.398438 29.628906 32.789063 C 29.117188 32.464844 27.175781 31.171875 23 26.996094 C 18.820313 22.820313 17.53125 20.878906 17.207031 20.367188 C 17.597656 19.6875 18.957031 17.320313 19.425781 16.425781 C 20.011719 15.3125 20.339844 14.050781 19.640625 12.957031 C 19.347656 12.492188 18.015625 10.464844 16.671875 8.429688 C 15.324219 6.394531 14.046875 4.464844 13.714844 4.003906 L 13.714844 4 C 13.28125 3.402344 12.605469 3.050781 11.839844 2.988281 Z" fill="white" />
</svg>
