<svg width="647" height="222" viewBox="0 0 647 222" fill="none" xmlns="http://www.w3.org/2000/svg">
<path d="M585.905 86.1439C582.321 86.1439 578.822 85.8453 575.409 85.2479C571.996 84.6506 568.881 83.6266 566.065 82.1759C563.249 80.8106 560.988 78.8906 559.281 76.4159C557.66 73.8559 556.849 70.6133 556.849 66.6879C556.849 62.4213 557.873 58.8373 559.921 55.9359C561.969 52.9493 564.657 50.5599 567.985 48.7679C571.313 46.8906 574.897 45.4399 578.737 44.4159C582.662 43.3919 586.46 42.6666 590.129 42.2399C593.884 41.7279 597.169 41.4293 599.985 41.3439C597.425 38.3573 595.121 34.6026 593.073 30.0799C591.025 25.5573 590.001 21.1626 590.001 16.8959C590.001 15.3599 590.172 13.8666 590.513 12.4159C590.854 10.9653 591.409 9.59993 592.177 8.31993C593.03 6.78393 594.396 5.50393 596.273 4.47993C598.15 3.37059 600.198 2.51726 602.417 1.91993C604.636 1.32259 606.684 1.02393 608.561 1.02393C611.718 1.02393 614.321 1.87726 616.369 3.58393C618.417 5.20526 620.337 6.86926 622.129 8.57593C622.556 9.00259 623.068 9.5146 623.665 10.1119C624.348 10.6239 625.073 11.0079 625.841 11.2639C626.182 11.3493 626.566 11.4346 626.993 11.5199C627.505 11.5199 627.932 11.6479 628.273 11.9039C628.956 12.5013 629.553 13.3973 630.065 14.5919C630.662 15.7866 631.132 16.8533 631.473 17.7919C631.985 19.1573 632.241 20.9493 632.241 23.1679C632.241 24.8746 632.028 26.4533 631.601 27.9039C631.26 29.3546 630.705 30.0799 629.937 30.0799C629.51 30.0799 628.956 29.6959 628.273 28.9279C627.249 27.7333 626.524 26.1546 626.097 24.1919C625.67 22.1439 625.03 20.3093 624.177 18.6879C623.153 16.4693 622.044 14.4213 620.849 12.5439C619.654 10.6666 618.204 9.04526 616.497 7.67993C615.814 6.91193 614.79 6.14393 613.425 5.37593C612.145 4.60793 610.652 4.22393 608.945 4.22393C607.665 4.22393 606.598 4.43726 605.745 4.86393C602.758 6.0586 600.625 8.02126 599.345 10.7519C598.15 13.4826 597.553 16.4693 597.553 19.7119C597.553 23.6373 598.193 27.5626 599.473 31.4879C600.753 35.3279 602.204 38.2719 603.825 40.3199C604.252 40.8319 605.276 41.1733 606.897 41.3439C608.604 41.4293 609.798 41.5573 610.481 41.7279C611.846 41.8133 612.828 42.1119 613.425 42.6239C614.022 43.1359 614.321 43.6906 614.321 44.2879C614.321 45.2266 613.766 46.0373 612.657 46.7199C612.23 47.1466 611.505 47.3599 610.481 47.3599C609.03 47.3599 607.409 47.1039 605.617 46.5919C603.825 45.9946 602.332 45.5679 601.137 45.3119C598.577 45.3973 595.633 45.8239 592.305 46.5919C588.977 47.3599 585.564 48.4693 582.065 49.9199C578.652 51.2853 575.452 52.9919 572.465 55.0399C569.564 57.0879 567.174 59.4346 565.297 62.0799C563.505 64.6399 562.566 67.4559 562.481 70.5279C562.396 73.9413 563.718 76.8853 566.449 79.3599C569.18 81.8346 574.172 83.0719 581.425 83.0719C584.838 83.0719 588.508 82.7733 592.433 82.1759C596.358 81.5786 600.198 80.7679 603.953 79.7439C607.793 78.8053 611.334 77.7813 614.577 76.6719C617.82 75.5626 620.465 74.4533 622.513 73.3439C624.134 72.5759 626.097 71.4239 628.401 69.8879C630.705 68.2666 632.966 66.4319 635.185 64.3839C637.489 62.3359 639.366 60.2453 640.817 58.1119C642.353 55.8933 643.121 53.7599 643.121 51.7119C643.121 51.5413 643.121 51.3279 643.121 51.0719C643.121 50.8159 643.078 50.6026 642.993 50.4319C642.908 50.0906 643.078 49.9199 643.505 49.9199C643.932 49.9199 644.23 50.0053 644.401 50.1759C645.596 51.8826 646.193 53.7599 646.193 55.8079C646.193 58.5386 645.212 61.2266 643.249 63.8719C641.372 66.5173 639.11 68.9066 636.465 71.0399C633.82 73.1733 631.388 74.8373 629.169 76.0319C626.524 77.5679 623.324 78.9333 619.569 80.1279C615.9 81.4079 612.017 82.4746 607.921 83.3279C603.91 84.2666 599.985 84.9493 596.145 85.3759C592.305 85.8879 588.892 86.1439 585.905 86.1439Z" fill="#FA00FF"/>
<path d="M442.138 94.72C440.687 94.72 439.322 94.5493 438.042 94.208C434.543 93.0133 432.367 90.624 431.514 87.04C431.429 86.784 431.386 86.4 431.386 85.888C431.386 84.6933 431.642 84.096 432.154 84.096C432.581 84.096 433.093 84.864 433.69 86.4C434.287 88.7893 435.738 90.24 438.042 90.752C438.554 90.9227 439.194 91.0507 439.962 91.136C440.73 91.2213 441.455 91.264 442.138 91.264C445.295 91.264 448.325 90.368 451.226 88.576C454.042 86.784 456.645 84.48 459.034 81.664C461.509 78.9333 463.727 76.1173 465.69 73.216C467.653 70.2293 469.274 67.5413 470.554 65.152C474.309 57.984 477.466 50.7307 480.026 43.392C482.586 35.968 485.061 28.2453 487.45 20.224C484.975 22.4427 482.245 24.1067 479.258 25.216C476.271 26.3253 473.455 27.008 470.81 27.264H470.682C469.829 27.264 469.402 26.9653 469.402 26.368C469.402 25.6853 469.914 25.2587 470.938 25.088C473.413 24.6613 475.973 23.6373 478.618 22.016C481.263 20.3093 483.695 18.176 485.914 15.616C488.218 13.056 489.967 10.2827 491.162 7.296C491.333 6.784 491.93 6.4 492.954 6.144C493.978 5.80266 495.002 5.632 496.026 5.632C496.965 5.632 497.775 5.76 498.458 6.016C499.226 6.272 499.525 6.69866 499.354 7.296C499.013 8.23466 498.714 9.68533 498.458 11.648C498.287 13.6107 498.117 15.1893 497.946 16.384C497.69 17.92 497.562 20.1387 497.562 23.04C497.562 26.7093 497.775 31.0187 498.202 35.968C498.629 40.9173 499.311 45.9947 500.25 51.2C501.274 56.4053 502.554 61.2693 504.09 65.792C505.626 70.3147 507.461 73.984 509.594 76.8C511.813 79.5307 514.373 80.896 517.274 80.896C520.261 80.896 523.077 79.4453 525.722 76.544C528.367 73.6427 530.757 69.8453 532.89 65.152C535.023 60.4587 536.858 55.3813 538.394 49.92C539.93 44.3733 541.082 38.9973 541.85 33.792C542.703 28.5013 543.13 23.8933 543.13 19.968C543.13 17.8347 543.002 16 542.746 14.464C542.405 12.16 541.893 10.1973 541.21 8.576C540.613 6.86933 539.973 5.12 539.29 3.328V3.2C539.29 2.85866 539.631 2.432 540.314 1.92C540.997 1.32266 541.509 0.981328 541.85 0.895996C543.13 0.895996 544.282 1.49333 545.306 2.688C546.415 3.88266 547.439 5.376 548.378 7.168C549.317 8.87466 550.255 10.5813 551.194 12.288C552.133 13.9947 553.157 15.36 554.266 16.384C554.949 16.9813 555.461 17.3653 555.802 17.536C556.229 17.7067 556.869 17.792 557.722 17.792L558.49 17.408C559.173 17.408 559.642 17.4933 559.898 17.664C560.154 17.7493 560.325 18.1333 560.41 18.816C560.41 19.4987 560.069 20.0533 559.386 20.48C558.789 20.9067 558.149 21.2053 557.466 21.376C556.357 21.376 554.949 20.8213 553.242 19.712C551.535 18.5173 550.255 17.5787 549.402 16.896C549.487 17.408 549.53 17.92 549.53 18.432C549.53 18.944 549.53 19.456 549.53 19.968C549.53 24.6613 548.933 29.9093 547.738 35.712C546.543 41.4293 544.879 47.1893 542.746 52.992C540.698 58.7947 538.266 64.128 535.45 68.992C532.719 73.856 529.733 77.7813 526.49 80.768C523.247 83.7547 519.877 85.248 516.378 85.248C512.282 85.248 508.783 84.0107 505.882 81.536C503.066 79.0613 500.677 75.7333 498.714 71.552C496.837 67.3707 495.343 62.7627 494.234 57.728C493.125 52.6933 492.357 47.5733 491.93 42.368C491.503 37.0773 491.29 32.1707 491.29 27.648C488.645 34.56 485.999 41.088 483.354 47.232C480.794 53.376 477.807 59.5627 474.394 65.792C472.858 68.608 470.981 71.68 468.762 75.008C466.629 78.2507 464.197 81.3653 461.466 84.352C458.735 87.424 455.749 89.8987 452.506 91.776C449.263 93.7387 445.807 94.72 442.138 94.72Z" fill="#FA00FF"/>
<path d="M341.763 94.72C340.312 94.72 338.947 94.5493 337.667 94.208C334.168 93.0133 331.992 90.624 331.139 87.04C331.054 86.784 331.011 86.4 331.011 85.888C331.011 84.6933 331.267 84.096 331.779 84.096C332.206 84.096 332.718 84.864 333.315 86.4C333.912 88.7893 335.363 90.24 337.667 90.752C338.179 90.9227 338.819 91.0507 339.587 91.136C340.355 91.2213 341.08 91.264 341.763 91.264C344.92 91.264 347.95 90.368 350.851 88.576C353.667 86.784 356.27 84.48 358.659 81.664C361.134 78.9333 363.352 76.1173 365.315 73.216C367.278 70.2293 368.899 67.5413 370.179 65.152C373.934 57.984 377.091 50.7307 379.651 43.392C382.211 35.968 384.686 28.2453 387.075 20.224C384.6 22.4427 381.87 24.1067 378.883 25.216C375.896 26.3253 373.08 27.008 370.435 27.264H370.307C369.454 27.264 369.027 26.9653 369.027 26.368C369.027 25.6853 369.539 25.2587 370.563 25.088C373.038 24.6613 375.598 23.6373 378.243 22.016C380.888 20.3093 383.32 18.176 385.539 15.616C387.843 13.056 389.592 10.2827 390.787 7.296C390.958 6.784 391.555 6.4 392.579 6.144C393.603 5.80266 394.627 5.632 395.651 5.632C396.59 5.632 397.4 5.76 398.083 6.016C398.851 6.272 399.15 6.69866 398.979 7.296C398.638 8.23466 398.339 9.68533 398.083 11.648C397.912 13.6107 397.742 15.1893 397.571 16.384C397.315 17.92 397.187 20.1387 397.187 23.04C397.187 26.7093 397.4 31.0187 397.827 35.968C398.254 40.9173 398.936 45.9947 399.875 51.2C400.899 56.4053 402.179 61.2693 403.715 65.792C405.251 70.3147 407.086 73.984 409.219 76.8C411.438 79.5307 413.998 80.896 416.899 80.896C419.886 80.896 422.702 79.4453 425.347 76.544C427.992 73.6427 430.382 69.8453 432.515 65.152C434.648 60.4587 436.483 55.3813 438.019 49.92C439.555 44.3733 440.707 38.9973 441.475 33.792C442.328 28.5013 442.755 23.8933 442.755 19.968C442.755 17.8347 442.627 16 442.371 14.464C442.03 12.16 441.518 10.1973 440.835 8.576C440.238 6.86933 439.598 5.12 438.915 3.328V3.2C438.915 2.85866 439.256 2.432 439.939 1.92C440.622 1.32266 441.134 0.981328 441.475 0.895996C442.755 0.895996 443.907 1.49333 444.931 2.688C446.04 3.88266 447.064 5.376 448.003 7.168C448.942 8.87466 449.88 10.5813 450.819 12.288C451.758 13.9947 452.782 15.36 453.891 16.384C454.574 16.9813 455.086 17.3653 455.427 17.536C455.854 17.7067 456.494 17.792 457.347 17.792L458.115 17.408C458.798 17.408 459.267 17.4933 459.523 17.664C459.779 17.7493 459.95 18.1333 460.035 18.816C460.035 19.4987 459.694 20.0533 459.011 20.48C458.414 20.9067 457.774 21.2053 457.091 21.376C455.982 21.376 454.574 20.8213 452.867 19.712C451.16 18.5173 449.88 17.5787 449.027 16.896C449.112 17.408 449.155 17.92 449.155 18.432C449.155 18.944 449.155 19.456 449.155 19.968C449.155 24.6613 448.558 29.9093 447.363 35.712C446.168 41.4293 444.504 47.1893 442.371 52.992C440.323 58.7947 437.891 64.128 435.075 68.992C432.344 73.856 429.358 77.7813 426.115 80.768C422.872 83.7547 419.502 85.248 416.003 85.248C411.907 85.248 408.408 84.0107 405.507 81.536C402.691 79.0613 400.302 75.7333 398.339 71.552C396.462 67.3707 394.968 62.7627 393.859 57.728C392.75 52.6933 391.982 47.5733 391.555 42.368C391.128 37.0773 390.915 32.1707 390.915 27.648C388.27 34.56 385.624 41.088 382.979 47.232C380.419 53.376 377.432 59.5627 374.019 65.792C372.483 68.608 370.606 71.68 368.387 75.008C366.254 78.2507 363.822 81.3653 361.091 84.352C358.36 87.424 355.374 89.8987 352.131 91.776C348.888 93.7387 345.432 94.72 341.763 94.72Z" fill="#FA00FF"/>
<path d="M293.53 86.1439C289.946 86.1439 286.447 85.8453 283.034 85.2479C279.621 84.6506 276.506 83.6266 273.69 82.1759C270.874 80.8106 268.613 78.8906 266.906 76.4159C265.285 73.8559 264.474 70.6133 264.474 66.6879C264.474 62.4213 265.498 58.8373 267.546 55.9359C269.594 52.9493 272.282 50.5599 275.61 48.7679C278.938 46.8906 282.522 45.4399 286.362 44.4159C290.287 43.3919 294.085 42.6666 297.754 42.2399C301.509 41.7279 304.794 41.4293 307.61 41.3439C305.05 38.3573 302.746 34.6026 300.698 30.0799C298.65 25.5573 297.626 21.1626 297.626 16.8959C297.626 15.3599 297.797 13.8666 298.138 12.4159C298.479 10.9653 299.034 9.59993 299.802 8.31993C300.655 6.78393 302.021 5.50393 303.898 4.47993C305.775 3.37059 307.823 2.51726 310.042 1.91993C312.261 1.32259 314.309 1.02393 316.186 1.02393C319.343 1.02393 321.946 1.87726 323.994 3.58393C326.042 5.20526 327.962 6.86926 329.754 8.57593C330.181 9.00259 330.693 9.5146 331.29 10.1119C331.973 10.6239 332.698 11.0079 333.466 11.2639C333.807 11.3493 334.191 11.4346 334.618 11.5199C335.13 11.5199 335.557 11.6479 335.898 11.9039C336.581 12.5013 337.178 13.3973 337.69 14.5919C338.287 15.7866 338.757 16.8533 339.098 17.7919C339.61 19.1573 339.866 20.9493 339.866 23.1679C339.866 24.8746 339.653 26.4533 339.226 27.9039C338.885 29.3546 338.33 30.0799 337.562 30.0799C337.135 30.0799 336.581 29.6959 335.898 28.9279C334.874 27.7333 334.149 26.1546 333.722 24.1919C333.295 22.1439 332.655 20.3093 331.802 18.6879C330.778 16.4693 329.669 14.4213 328.474 12.5439C327.279 10.6666 325.829 9.04526 324.122 7.67993C323.439 6.91193 322.415 6.14393 321.05 5.37593C319.77 4.60793 318.277 4.22393 316.57 4.22393C315.29 4.22393 314.223 4.43726 313.37 4.86393C310.383 6.0586 308.25 8.02126 306.97 10.7519C305.775 13.4826 305.178 16.4693 305.178 19.7119C305.178 23.6373 305.818 27.5626 307.098 31.4879C308.378 35.3279 309.829 38.2719 311.45 40.3199C311.877 40.8319 312.901 41.1733 314.522 41.3439C316.229 41.4293 317.423 41.5573 318.106 41.7279C319.471 41.8133 320.453 42.1119 321.05 42.6239C321.647 43.1359 321.946 43.6906 321.946 44.2879C321.946 45.2266 321.391 46.0373 320.282 46.7199C319.855 47.1466 319.13 47.3599 318.106 47.3599C316.655 47.3599 315.034 47.1039 313.242 46.5919C311.45 45.9946 309.957 45.5679 308.762 45.3119C306.202 45.3973 303.258 45.8239 299.93 46.5919C296.602 47.3599 293.189 48.4693 289.69 49.9199C286.277 51.2853 283.077 52.9919 280.09 55.0399C277.189 57.0879 274.799 59.4346 272.922 62.0799C271.13 64.6399 270.191 67.4559 270.106 70.5279C270.021 73.9413 271.343 76.8853 274.074 79.3599C276.805 81.8346 281.797 83.0719 289.05 83.0719C292.463 83.0719 296.133 82.7733 300.058 82.1759C303.983 81.5786 307.823 80.7679 311.578 79.7439C315.418 78.8053 318.959 77.7813 322.202 76.6719C325.445 75.5626 328.09 74.4533 330.138 73.3439C331.759 72.5759 333.722 71.4239 336.026 69.8879C338.33 68.2666 340.591 66.4319 342.81 64.3839C345.114 62.3359 346.991 60.2453 348.442 58.1119C349.978 55.8933 350.746 53.7599 350.746 51.7119C350.746 51.5413 350.746 51.3279 350.746 51.0719C350.746 50.8159 350.703 50.6026 350.618 50.4319C350.533 50.0906 350.703 49.9199 351.13 49.9199C351.557 49.9199 351.855 50.0053 352.026 50.1759C353.221 51.8826 353.818 53.7599 353.818 55.8079C353.818 58.5386 352.837 61.2266 350.874 63.8719C348.997 66.5173 346.735 68.9066 344.09 71.0399C341.445 73.1733 339.013 74.8373 336.794 76.0319C334.149 77.5679 330.949 78.9333 327.194 80.1279C323.525 81.4079 319.642 82.4746 315.546 83.3279C311.535 84.2666 307.61 84.9493 303.77 85.3759C299.93 85.8879 296.517 86.1439 293.53 86.1439Z" fill="#FA00FF"/>
<path d="M284.684 99.2C281.1 99.2 277.388 98.688 273.548 97.664C269.793 96.7253 266.252 95.5733 262.924 94.208C259.596 92.928 256.695 91.8613 254.22 91.008C249.697 89.3867 245.473 87.808 241.548 86.272C237.623 84.736 234.849 83.7973 233.228 83.456C224.951 81.3227 219.105 80.256 215.692 80.256C215.095 80.6827 214.54 81.024 214.028 81.28C213.516 81.6213 212.961 81.8347 212.364 81.92C212.108 82.0053 211.724 82.048 211.212 82.048C209.676 82.048 208.908 81.536 208.908 80.512C208.908 79.9147 209.377 79.3173 210.316 78.72C210.999 78.3787 211.767 78.208 212.62 78.208C213.559 78.1227 214.497 78.0373 215.436 77.952C217.399 76.2453 219.233 74.0693 220.94 71.424C222.732 68.7787 224.012 66.7733 224.78 65.408C225.463 64.2133 226.103 63.0613 226.7 61.952C227.383 60.7573 228.065 59.6053 228.748 58.496C227.383 58.8373 225.975 59.1787 224.524 59.52C223.073 59.776 221.665 59.904 220.3 59.904C217.825 59.904 215.564 59.392 213.516 58.368C211.553 57.344 210.572 55.4667 210.572 52.736C210.572 50.944 211.34 49.28 212.876 47.744C214.497 46.208 216.161 45.44 217.868 45.44C218.892 45.44 219.404 45.8667 219.404 46.72C219.404 47.232 219.02 47.488 218.252 47.488C217.313 47.488 216.46 48.0427 215.692 49.152C214.924 50.2613 214.54 51.4133 214.54 52.608C214.54 53.4613 214.796 54.3147 215.308 55.168C215.905 55.936 216.887 56.4053 218.252 56.576C219.532 56.832 220.897 56.96 222.348 56.96C224.823 56.96 227.34 56.6187 229.9 55.936C231.095 53.5467 232.204 51.2 233.228 48.896C234.337 46.5067 235.404 44.16 236.428 41.856C238.561 37.1627 240.737 32.5973 242.956 28.16C245.175 23.7227 247.351 19.7547 249.484 16.256C251.617 12.7573 253.537 10.1547 255.244 8.448C258.487 5.376 261.729 3.2 264.972 1.92C268.3 0.639999 271.287 0 273.932 0C274.444 0 274.956 0.0426661 275.468 0.127998C275.98 0.127998 276.449 0.170664 276.876 0.255997C280.033 0.767995 282.252 1.87733 283.532 3.584C284.812 5.20533 285.452 7.168 285.452 9.472C285.452 10.6667 285.324 11.904 285.068 13.184C283.959 18.56 281.697 23.5947 278.284 28.288C274.956 32.9813 270.903 37.248 266.124 41.088C261.345 44.8427 256.225 48.0427 250.764 50.688C245.388 53.3333 240.14 55.2533 235.02 56.448C233.911 58.3253 232.716 60.2027 231.436 62.08C230.241 63.872 228.919 65.664 227.468 67.456C226.615 68.736 225.377 70.4 223.756 72.448C222.135 74.4107 220.471 76.2453 218.764 77.952C219.959 78.0373 221.239 78.1227 222.604 78.208C224.055 78.3787 225.591 78.592 227.212 78.848C234.295 79.9573 241.377 81.5787 248.46 83.712C255.628 85.9307 262.711 87.936 269.708 89.728C271.671 90.24 274.444 90.88 278.028 91.648C281.697 92.416 285.111 92.8 288.268 92.8C291.34 92.8 293.687 92.2453 295.308 91.136C296.588 90.368 297.228 89.3013 297.228 87.936C297.228 86.912 296.759 86.0587 295.82 85.376C295.308 84.9493 295.052 84.608 295.052 84.352C295.052 83.4987 295.564 83.3707 296.588 83.968C297.697 84.736 298.465 85.632 298.892 86.656C299.404 87.68 299.66 88.7467 299.66 89.856C299.66 91.136 299.404 92.288 298.892 93.312C298.465 94.4213 297.911 95.1893 297.228 95.616C293.729 98.0053 289.548 99.2 284.684 99.2ZM236.94 53.504C246.412 49.408 254.732 44.416 261.9 38.528C269.068 32.64 274.743 24.8747 278.924 15.232C280.289 12.2453 280.972 9.64266 280.972 7.424C280.972 5.632 280.417 4.224 279.308 3.2C278.711 2.432 277.729 2.048 276.364 2.048C273.548 2.048 270.647 3.02933 267.66 4.992C265.1 6.86933 262.668 9.344 260.364 12.416C258.145 15.488 256.055 18.7307 254.092 22.144C252.129 25.5573 250.38 28.8 248.844 31.872C247.393 34.8587 246.156 37.248 245.132 39.04C244.449 40.4053 243.383 42.4107 241.932 45.056C240.567 47.7013 238.903 50.5173 236.94 53.504Z" fill="#FA00FF"/>
<path d="M152.413 125.568C149.341 125.568 146.866 124.672 144.989 122.88C143.197 121.173 142.301 118.869 142.301 115.968C142.301 113.749 142.898 111.189 144.093 108.288C145.373 105.472 147.421 102.485 150.237 99.328C156.04 92.672 162.482 87.2106 169.565 82.944C176.733 78.6773 184.456 75.2213 192.733 72.576C193.245 71.1253 193.97 68.736 194.909 65.408C195.848 62.08 196.914 58.1973 198.109 53.76C199.304 49.3226 200.541 44.8 201.821 40.192C198.493 45.312 194.909 50.304 191.069 55.168C187.229 59.9466 183.261 64.2986 179.165 68.224C175.154 72.064 171.144 75.136 167.133 77.44C163.208 79.6586 159.453 80.768 155.869 80.768C153.736 80.768 151.816 80.128 150.109 78.848C148.488 77.568 147.464 75.4346 147.037 72.448C146.952 71.8506 146.866 71.296 146.781 70.784C146.781 70.1866 146.781 69.5893 146.781 68.992C146.781 65.2373 147.421 61.312 148.701 57.216C149.981 53.12 151.56 49.024 153.437 44.928C155.4 40.7466 157.362 36.6506 159.325 32.64C161.373 28.6293 163.08 24.9173 164.445 21.504C164.616 21.248 164.701 21.0346 164.701 20.864C164.701 20.608 164.701 20.4373 164.701 20.352C164.701 20.0106 164.573 19.84 164.317 19.84C163.805 19.84 162.866 20.3946 161.501 21.504C158.6 23.8933 155.613 25.9413 152.541 27.648C149.469 29.3546 146.61 30.2933 143.965 30.464H143.837C143.069 30.464 142.685 30.208 142.685 29.696C142.685 28.928 143.24 28.4586 144.349 28.288C145.8 28.1173 147.549 27.4773 149.597 26.368C151.73 25.1733 153.949 23.7226 156.253 22.016C158.557 20.3093 160.733 18.56 162.781 16.768C164.914 14.8906 166.706 13.184 168.157 11.648C169.693 10.112 170.674 8.9173 171.101 8.06397C171.272 7.63731 171.869 7.25331 172.893 6.91197C174.002 6.57064 175.069 6.39997 176.093 6.39997C177.032 6.39997 177.842 6.52797 178.525 6.78397C179.208 7.03998 179.464 7.46664 179.293 8.06397C178.696 9.00264 177.544 10.88 175.837 13.696C174.216 16.4266 172.296 19.7546 170.077 23.68C167.944 27.6053 165.768 31.7866 163.549 36.224C161.416 40.576 159.496 44.928 157.789 49.28C156.168 53.5466 155.016 57.4293 154.333 60.928C154.162 62.0373 154.034 63.104 153.949 64.128C153.864 65.0666 153.821 66.0053 153.821 66.944C153.821 70.3573 154.418 72.7893 155.613 74.24C156.808 75.6053 158.301 76.288 160.093 76.288C162.994 76.288 166.152 75.136 169.565 72.832C172.978 70.4426 176.477 67.2853 180.061 63.36C183.73 59.3493 187.272 54.912 190.685 50.048C194.098 45.0986 197.298 40.0213 200.285 34.816C203.357 29.6106 206.002 24.6613 208.221 19.968C208.904 18.5173 209.458 17.1946 209.885 16C210.397 14.72 210.952 13.568 211.549 12.544C211.89 11.8613 212.189 11.3066 212.445 10.88C212.701 10.368 213 10.0266 213.341 9.85597C214.365 8.14931 215.816 6.99731 217.693 6.39997C219.57 5.71731 221.448 5.37598 223.325 5.37598C224.946 5.37598 226.312 5.50397 227.421 5.75997C228.616 5.93064 229.469 6.05864 229.981 6.14397C230.834 6.22931 231.261 6.61331 231.261 7.29597C231.261 7.63731 231.09 7.97864 230.749 8.31998C230.408 8.57597 229.938 8.70397 229.341 8.70397C226.013 8.36264 223.282 9.42931 221.149 11.904C219.101 14.3786 217.138 18.048 215.261 22.912C214.578 24.5333 213.682 27.0506 212.573 30.464C211.549 33.792 210.397 37.504 209.117 41.6C207.837 45.6106 206.557 49.6213 205.277 53.632C204.082 57.6426 202.973 61.184 201.949 64.256C201.01 67.328 200.328 69.504 199.901 70.784C204.168 69.5893 207.453 68.992 209.757 68.992C210.696 68.992 211.336 69.12 211.677 69.376C211.933 69.632 212.061 69.9306 212.061 70.272C212.061 70.6133 211.976 70.912 211.805 71.168C211.634 71.3386 211.378 71.3386 211.037 71.168C210.696 70.9973 210.184 70.912 209.501 70.912C208.392 70.912 206.984 71.1253 205.277 71.552C203.656 71.8933 202.12 72.3626 200.669 72.96C199.304 73.5573 198.45 74.2826 198.109 75.136C193.245 87.5093 187.997 97.3653 182.365 104.704C176.818 112.128 171.4 117.461 166.109 120.704C160.904 123.947 156.338 125.568 152.413 125.568ZM155.997 122.24C159.154 122.24 162.269 121.003 165.341 118.528C168.413 116.139 171.357 113.024 174.173 109.184C176.989 105.344 179.549 101.248 181.853 96.896C184.242 92.544 186.29 88.4053 187.997 84.48C189.789 80.5546 191.112 77.3973 191.965 75.008C184.968 77.312 178.482 80.384 172.509 84.224C166.536 88.064 161.202 92.8853 156.509 98.688C153.864 101.845 151.986 104.789 150.877 107.52C149.768 110.336 149.213 112.768 149.213 114.816C149.213 117.12 149.81 118.912 151.005 120.192C152.285 121.557 153.949 122.24 155.997 122.24Z" fill="#FA00FF"/>
<path d="M6.4 88.0641C4.52267 88.0641 2.98667 87.4667 1.792 86.2721C0.597333 85.0774 0 83.4134 0 81.2801C0 80.0854 0.256 78.7627 0.768 77.3121C1.19467 75.7761 1.96267 74.1547 3.072 72.4481C5.03467 69.3761 7.552 65.9627 10.624 62.2081C13.7813 58.3681 17.1093 54.5707 20.608 50.8161C24.1067 47.0614 27.392 43.6481 30.464 40.5761C33.6213 37.4187 36.1387 34.9867 38.016 33.2801C38.8693 30.7201 39.68 28.0747 40.448 25.3441C41.3013 22.6134 42.1547 19.7974 43.008 16.8961C40.6187 19.1147 37.888 20.7787 34.816 21.8881C31.8293 22.9974 29.0133 23.6374 26.368 23.8081H26.24C25.3867 23.8081 24.96 23.5094 24.96 22.9121C24.96 22.2294 25.472 21.8454 26.496 21.7601C28.9707 21.5041 31.5307 20.5654 34.176 18.9441C36.8213 17.2374 39.2533 15.1041 41.472 12.5441C43.776 9.89872 45.5253 7.08272 46.72 4.09605C46.8907 3.58406 47.4453 3.20006 48.384 2.94406C49.408 2.68806 50.4747 2.56006 51.584 2.56006C52.5227 2.56006 53.3333 2.68806 54.016 2.94406C54.784 3.11473 55.0827 3.49872 54.912 4.09605C53.376 8.02139 51.8827 11.8187 50.432 15.4881C48.9813 19.0721 47.5733 22.5707 46.208 25.9841C51.2427 21.7174 55.936 18.1761 60.288 15.3601C64.7253 12.4587 68.3093 10.9227 71.04 10.7521C75.904 10.4961 79.7013 11.3067 82.432 13.1841C85.248 15.0614 87.2107 17.5787 88.32 20.7361C89.5147 23.8081 90.112 27.0934 90.112 30.5921C90.112 31.4454 90.0693 32.2561 89.984 33.0241C89.984 33.7921 89.9413 34.5601 89.856 35.3281C89.4293 39.2534 88.576 43.7334 87.296 48.7681C86.016 53.8027 84.6507 58.4961 83.2 62.8481C83.0293 63.2747 82.7733 64.0427 82.432 65.1521C82.0907 66.1761 82.048 66.6881 82.304 66.6881C82.3893 66.6881 82.816 66.1334 83.584 65.0241C85.7173 61.5254 87.7653 58.1121 89.728 54.7841C91.776 51.3707 93.952 47.8721 96.256 44.2881C99.6693 38.9974 103.381 33.6641 107.392 28.2881C111.488 22.9121 115.584 18.0907 119.68 13.8241C121.301 12.1174 122.965 10.8374 124.672 9.98405C126.464 9.13072 128.128 8.70406 129.664 8.70406C131.371 8.70406 132.779 9.30139 133.888 10.4961C135.083 11.6054 135.68 13.3547 135.68 15.7441C135.68 16.3414 135.595 17.0241 135.424 17.7921C135.339 18.4747 135.211 19.2427 135.04 20.0961C134.016 24.1921 132.821 27.9467 131.456 31.3601C130.091 34.7734 128.725 38.1441 127.36 41.4721C125.995 44.7147 124.757 48.1281 123.648 51.7121C122.624 55.2961 121.899 59.2641 121.472 63.6161C121.387 64.3841 121.301 65.1094 121.216 65.7921C121.216 66.4747 121.216 67.1147 121.216 67.7121C121.216 70.6134 121.643 72.7467 122.496 74.1121C123.349 75.3921 124.459 76.0321 125.824 76.0321C127.445 76.0321 129.323 75.3494 131.456 73.9841C133.675 72.5334 135.893 70.7841 138.112 68.7361C140.331 66.6027 142.336 64.5547 144.128 62.5921C145.92 60.5441 147.243 58.9227 148.096 57.7281C148.267 57.4721 148.523 57.3441 148.864 57.3441C149.205 57.3441 149.504 57.4721 149.76 57.7281C150.016 57.9841 150.016 58.3254 149.76 58.7521C148.651 60.4587 147.072 62.4641 145.024 64.7681C143.061 66.9867 140.971 69.1627 138.752 71.2961C136.619 73.3441 134.699 75.0081 132.992 76.2881C131.712 77.2267 130.219 77.9947 128.512 78.5921C126.891 79.1894 125.269 79.4881 123.648 79.4881C121.771 79.4881 120.064 79.0187 118.528 78.0801C116.992 77.1414 115.925 75.5201 115.328 73.2161C115.072 72.3627 114.901 71.4667 114.816 70.5281C114.731 69.5894 114.688 68.6081 114.688 67.5841C114.688 64.0001 115.2 60.0321 116.224 55.6801C117.248 51.2427 118.528 46.8481 120.064 42.4961C121.6 38.0587 123.051 34.0481 124.416 30.4641C125.867 26.7947 126.976 23.8934 127.744 21.7601C128.341 20.5654 128.64 19.4561 128.64 18.4321C128.64 16.6401 127.872 15.7441 126.336 15.7441C125.056 15.7441 123.563 16.4694 121.856 17.9201C119.381 20.0534 116.651 22.8267 113.664 26.2401C110.763 29.6534 107.776 33.4081 104.704 37.5041C101.717 41.6001 98.7733 45.8241 95.872 50.1761C93.056 54.4427 90.4533 58.5814 88.064 62.5921C85.76 66.5174 83.8827 70.0161 82.432 73.0881C81.8347 74.3681 81.152 75.0081 80.384 75.0081C79.7867 75.0081 79.1893 74.6241 78.592 73.8561C78.08 73.0881 77.6533 72.2774 77.312 71.4241C77.056 70.4854 77.0133 69.8454 77.184 69.5041C78.2933 66.7734 79.3173 63.4454 80.256 59.5201C81.1947 55.5094 81.9627 51.2854 82.56 46.8481C83.1573 42.3254 83.456 38.0161 83.456 33.9201C83.456 28.4587 82.7733 23.8507 81.408 20.0961C80.0427 16.2561 77.6533 14.3361 74.24 14.3361C72.0213 14.3361 69.2053 15.2747 65.792 17.1521C62.3787 19.0294 58.6667 21.5467 54.656 24.7041C50.7307 27.8614 46.6773 31.3601 42.496 35.2001C41.728 37.0774 40.576 39.8081 39.04 43.3921C37.5893 46.9761 35.84 50.9441 33.792 55.2961C31.8293 59.6481 29.6107 64.0001 27.136 68.3521C24.7467 72.6187 22.272 76.3734 19.712 79.6161C17.408 82.5174 15.104 84.6507 12.8 86.0161C10.496 87.3814 8.36267 88.0641 6.4 88.0641ZM7.04 83.5841C9.25867 83.5841 11.52 82.3894 13.824 80.0001C16.2133 77.6961 18.56 74.7521 20.864 71.1681C23.2533 67.4987 25.4293 63.7014 27.392 59.7761C29.3547 55.8507 31.0187 52.2241 32.384 48.8961C33.8347 45.5681 34.8587 43.0934 35.456 41.4721C33.0667 43.7761 30.5493 46.3361 27.904 49.1521C25.2587 51.8827 22.656 54.6987 20.096 57.6001C17.6213 60.4161 15.36 63.0614 13.312 65.5361C11.264 68.0107 9.64267 70.0587 8.448 71.6801C7.08267 73.5574 6.05867 75.2641 5.376 76.8001C4.77867 78.2507 4.48 79.5307 4.48 80.6401C4.48 82.6027 5.33333 83.5841 7.04 83.5841Z" fill="#FA00FF"/>
<path d="M485.847 186.184L508.887 127.048H527.447L504.407 186.184H485.847ZM485.719 219.208V186.184H504.407V219.208H485.719ZM485.719 186.184L462.679 127.048H485.207L504.407 186.184H485.719Z" fill="black"/>
<path d="M394.774 143.176V127.048H457.494V143.176H394.774ZM415.51 219.208V127.048H436.758V219.208H415.51Z" fill="black"/>
<path d="M364.55 194.504V127.048H385.798V194.504H364.55ZM325.894 194.504V127.048H347.142V194.504H325.894ZM385.798 194.376C385.798 199.496 384.476 204.104 381.83 208.2C379.185 212.211 375.601 215.411 371.078 217.8C366.556 220.104 361.436 221.256 355.718 221.256V205.128C358.449 205.128 360.582 204.189 362.118 202.312C363.74 200.435 364.55 197.789 364.55 194.376H385.798ZM325.894 194.376H347.142C347.142 197.789 347.91 200.435 349.446 202.312C351.068 204.189 353.244 205.128 355.974 205.128V221.256C350.257 221.256 345.137 220.104 340.614 217.8C336.092 215.411 332.508 212.211 329.862 208.2C327.217 204.104 325.894 199.496 325.894 194.376Z" fill="black"/>
<path d="M268.638 204.872V188.744H301.406V204.872H268.638ZM292.446 127.048L269.534 219.208H249.054L271.966 127.048H292.446ZM292.702 127.048L315.614 219.208H295.134L272.222 127.048H292.702Z" fill="black"/>
<path d="M210.022 219.208V203.08H242.534V219.208H210.022ZM210.022 181.192V165.064H234.854V181.192H210.022ZM193.894 127.048H215.142V219.208H193.894V127.048ZM211.302 127.048H241.254V143.176H211.302V127.048Z" fill="black"/>
<path d="M149.134 176.84V164.552C151.865 164.552 153.998 163.613 155.534 161.736C157.156 159.859 157.966 157.213 157.966 153.8H179.214C179.214 158.152 177.892 162.077 175.246 165.576C172.601 169.075 169.017 171.848 164.494 173.896C159.972 175.859 154.852 176.84 149.134 176.84ZM142.862 219.208V203.08H150.542V219.208H142.862ZM142.862 179.4V164.552H150.414V179.4H142.862ZM159.246 192.456V190.024H180.494V192.456H159.246ZM159.246 190.152C159.246 186.739 158.436 184.093 156.814 182.216C155.278 180.339 153.145 179.4 150.414 179.4V167.112C156.132 167.112 161.252 168.136 165.774 170.184C170.297 172.147 173.881 174.877 176.526 178.376C179.172 181.789 180.494 185.715 180.494 190.152H159.246ZM142.862 143.176V127.048H149.262V143.176H142.862ZM179.214 153.928H157.966C157.966 150.515 157.156 147.869 155.534 145.992C153.998 144.115 151.865 143.176 149.134 143.176V127.048C154.852 127.048 159.972 128.243 164.494 130.632C169.017 132.936 172.601 136.136 175.246 140.232C177.892 144.243 179.214 148.808 179.214 153.928ZM180.494 192.328C180.494 197.448 179.172 202.056 176.526 206.152C173.881 210.163 170.297 213.363 165.774 215.752C161.252 218.056 156.132 219.208 150.414 219.208V203.08C153.145 203.08 155.278 202.141 156.814 200.264C158.436 198.387 159.246 195.741 159.246 192.328H180.494ZM122.894 219.208V127.048H144.142V219.208H122.894Z" fill="black"/>
</svg>
